HIERARCHY
ROOT hip
{
	OFFSET 0.000000 0.000000 0.000000 
	CHANNELS 6 Xposition Yposition Zposition Xrotation Zrotation Yrotation
	JOINT abdomen
	{
		OFFSET 0.000000 3.402643 0.000000 
		CHANNELS 3 Xrotation Zrotation Yrotation
		JOINT chest
		{
			OFFSET 0.000000 8.438565 -0.680529 
			CHANNELS 3 Xrotation Zrotation Yrotation
			JOINT neck
			{
				OFFSET 0.000000 10.207942 -0.272212 
				CHANNELS 3 Xrotation Zrotation Yrotation
				JOINT head
				{
					OFFSET 0.000000 3.130431 0.000000 
					CHANNELS 3 Xrotation Zrotation Yrotation
					End Site
					{
						OFFSET 0.000000 3.130435 0.000000 
					}
				}
			}
			JOINT lCollar
			{
				OFFSET 3.470700 6.669187 -0.816635 
				CHANNELS 3 Yrotation Zrotation Xrotation
				JOINT lShldr
				{
					OFFSET 3.198488 0.000000 0.000000 
					CHANNELS 3 Zrotation Yrotation Xrotation
					JOINT lForeArm
					{
						OFFSET 10.139888 0.000000 0.000000 
						CHANNELS 3 Yrotation Zrotation Xrotation
						JOINT lHand
						{
							OFFSET 8.370511 0.000000 0.000000 
							CHANNELS 3 Zrotation Yrotation Xrotation
							End Site
							{
								OFFSET 4.083176 0.000000 0.000000 
							}
						}
					}
				}
			}
			JOINT rCollar
			{
				OFFSET -3.470700 6.669187 -0.816635 
				CHANNELS 3 Yrotation Zrotation Xrotation
				JOINT rShldr
				{
					OFFSET -3.198488 0.000000 0.000000 
					CHANNELS 3 Zrotation Yrotation Xrotation
					JOINT rForeArm
					{
						OFFSET -10.139888 0.000000 0.000000 
						CHANNELS 3 Yrotation Zrotation Xrotation
						JOINT rHand
						{
							OFFSET -8.370511 0.000000 0.000000 
							CHANNELS 3 Zrotation Yrotation Xrotation
							End Site
							{
								OFFSET -4.083176 0.000000 0.000000 
							}
						}
					}
				}
			}
		}
	}
	JOINT lThigh
	{
		OFFSET 5.308129 -1.633274 1.361059 
		CHANNELS 3 Xrotation Zrotation Yrotation
		JOINT lShin
		{
			OFFSET -2.041588 -20.007561 0.000000 
			CHANNELS 3 Xrotation Zrotation Yrotation
			JOINT lFoot
			{
				OFFSET 0.000000 -19.190928 -1.224953 
				CHANNELS 3 Xrotation Yrotation Zrotation
				End Site
				{
					OFFSET 0.000000 -2.449906 4.627600 
				}
			}
		}
	}
	JOINT rThigh
	{
		OFFSET -5.308129 -1.633274 1.361059 
		CHANNELS 3 Xrotation Zrotation Yrotation
		JOINT rShin
		{
			OFFSET 2.041588 -20.007561 0.000000 
			CHANNELS 3 Xrotation Zrotation Yrotation
			JOINT rFoot
			{
				OFFSET 0.000000 -19.190928 -1.224953 
				CHANNELS 3 Xrotation Yrotation Zrotation
				End Site
				{
					OFFSET 0.000000 -2.449906 4.627600 
				}
			}
		}
	}
}
MOTION
Frames: 11
Frame Time: 0.033333
-12.118164 51.509125 169.195816 2.812500 3.496094 6.856064 34.418476 -0.459866 -16.950609 -12.783203 14.003907 5.158614 51.063168 8.107644 2.471410 -87.451172 6.748047 -3.544923 2.000000 -2.000000 0.000000 -78.359375 -12.910157 -15.988510 -59.891239 -1.382206 -2.282577 -15.808319 55.896893 -11.342370 -2.000000 2.000000 0.000000 90.419922 -24.550781 -13.285307 52.471489 1.502785 -2.001998 16.913448 -56.240612 -22.848747 4.935428 2.185637 6.652643 23.091118 -5.403295 -2.111669 6.464519 1.343970 13.981200 -13.455474 -7.721411 -31.470800 -7.075207 4.859970 -0.892154 16.408550 -8.904403 -4.678229 
-12.632992 51.017723 171.023010 1.572266 2.792969 5.341797 36.670570 -1.094809 -15.879719 -14.042969 14.111329 5.380860 51.063168 8.107644 2.471410 -87.617188 7.451171 -4.785157 2.000000 -2.000000 0.000000 -78.466797 -11.474609 -16.123047 -59.541519 -1.581728 -2.349435 -15.025631 56.449337 -11.292089 -2.000000 2.000000 0.000000 91.416016 -23.447264 -12.445292 52.306530 1.671363 -2.041086 17.248825 -56.169147 -23.319780 8.207343 3.768430 11.602192 22.011299 -5.420972 -2.029257 9.511893 3.692204 22.226095 -11.783884 -6.439057 -30.453266 -5.124218 4.870383 -0.734938 18.029814 -9.539989 -4.812550 
-13.134509 50.982727 172.847885 0.351563 2.080076 3.525748 39.089809 -1.825653 -14.637918 -15.292970 14.384766 5.634766 51.063168 8.107644 2.471410 -86.376953 7.724608 -5.029297 2.000000 -2.000000 0.000000 -78.798828 -9.121094 -16.153891 -59.009598 -1.229725 -2.183909 -14.089200 57.546932 -10.487104 -2.000000 2.000000 0.000000 91.894531 -22.363281 -11.361136 51.955997 1.839939 -2.080175 17.648882 -56.069813 -23.966223 10.944237 5.068049 16.762075 21.664656 -5.401875 -1.957116 13.945356 7.422590 30.249289 -10.592741 -5.297663 -29.504358 -1.482740 5.229050 0.035923 15.969025 -9.494185 -4.654229 
-13.614623 51.228825 174.666977 -1.064453 1.210938 1.367188 41.477703 -2.875840 -13.215109 -16.748047 14.492188 5.625000 51.063168 8.107644 2.471410 -84.980469 6.699219 -5.205079 2.000000 -2.000000 0.000000 -79.599609 -6.884765 -16.455078 -58.657753 -1.238906 -2.173594 -13.276263 58.412876 -10.174809 -2.000000 2.000000 0.000000 91.767578 -21.279297 -10.140263 51.779739 1.809555 -2.062385 16.998260 -55.607128 -23.572979 11.415093 6.816833 20.607893 24.483479 -4.794012 -2.104757 23.870518 11.446536 35.776291 -9.878880 -4.300878 -27.659472 2.723091 5.211714 0.406223 14.135345 -9.551960 -4.127098 
-14.064995 51.665733 176.477905 -2.314453 0.341797 -0.546875 43.660206 -4.133220 -11.777675 -17.851563 14.384766 5.842270 51.063168 8.107644 2.471410 -83.525391 3.427734 -5.380860 2.000000 -2.000000 0.000000 -81.464844 -4.033203 -16.240921 -58.657753 -1.238906 -2.173594 -13.520862 58.758801 -10.574027 -2.000000 2.000000 0.000000 90.175781 -20.429688 -8.802235 51.604095 1.878367 -2.068162 16.430033 -55.674171 -23.378065 6.276786 9.901106 22.783689 33.264130 -4.397773 -2.899701 25.500093 15.339784 34.580532 -10.679300 -4.145148 -25.551987 10.493453 5.095245 0.910845 9.820717 -9.850916 -3.572739 
-14.477643 51.871361 178.277328 -3.017578 -0.361328 -2.470703 45.137390 -5.478447 -10.480319 -18.583984 14.267578 5.976562 51.063168 8.107644 2.471410 -81.611328 -1.064453 -5.468931 2.000000 -2.000000 0.000000 -83.935547 -0.371094 -15.888733 -58.833801 -1.239474 -2.183340 -14.029521 58.679317 -11.229489 -2.000000 2.000000 0.000000 87.470703 -20.048828 -6.347656 51.250732 1.698335 -2.000403 15.232300 -55.808178 -22.795195 -1.934947 13.968710 23.532999 45.375626 -3.658030 -3.684923 24.695007 14.596885 24.408834 -10.067282 -3.270754 -23.652517 14.725253 5.009123 1.243000 4.914493 -9.576832 -3.432064 
-14.844235 51.748184 180.065186 -3.535156 -0.722656 -4.726686 45.712883 -7.460581 -9.104663 -18.818359 13.417969 6.113282 51.063168 8.107644 2.471410 -80.244141 -4.316406 -6.064455 2.000000 -2.000000 0.000000 -85.605469 3.291016 -16.200609 -58.833801 -1.239474 -2.183340 -13.970194 59.059376 -11.047831 -2.000000 2.000000 0.000000 85.253906 -18.496092 -4.885910 51.426800 1.689155 -2.010716 14.705836 -56.111496 -22.025848 -11.210259 17.690840 22.094660 56.948772 -3.206281 -4.341561 21.412514 13.050937 11.747963 -9.583976 -2.553853 -21.579149 18.947336 4.893940 1.567331 1.243351 -9.518595 -3.394791 
-15.156789 51.768368 181.837952 -3.525390 -0.878906 -7.529446 45.550240 -10.024406 -7.361035 -18.701172 12.363283 6.308594 51.063168 8.107644 2.471410 -80.156250 -6.181640 -6.640626 2.000000 -2.000000 0.000000 -86.386719 6.103516 -17.059509 -58.481956 -1.248655 -2.173026 -13.307040 59.507656 -9.733706 -2.000000 2.000000 0.000000 83.730469 -15.556642 -3.195979 51.250717 1.708084 -1.999836 14.823545 -55.273304 -21.303761 -17.538446 20.105371 21.791702 62.195164 -2.768136 -4.432324 18.037502 11.390684 4.087533 -9.090347 -2.215899 -19.711296 21.600962 4.765393 1.987824 -0.878423 -8.506505 -3.378465 
-15.407087 51.946774 183.593384 -3.173828 -0.878906 -10.000150 44.701775 -12.845361 -5.532174 -18.242189 10.957032 6.308595 51.063168 8.107644 2.471410 -80.058594 -7.763671 -6.865235 2.000000 -2.000000 0.000000 -87.460938 9.033204 -19.090263 -58.142914 -1.567440 -2.271771 -12.209809 60.194035 -8.143836 -2.000000 2.000000 0.000000 81.767578 -12.070312 -1.738281 51.250732 1.698335 -2.000403 15.538630 -54.152740 -20.967030 -20.175486 20.204132 23.394436 58.658791 -2.689261 -4.401595 14.817382 11.289053 2.668834 -7.115390 -1.687110 -17.761526 21.594257 4.884973 1.454077 -2.420182 -7.099159 -3.278125 
-15.587029 52.215038 185.329132 -2.646484 -1.064453 -11.582212 43.251560 -14.843571 -3.729496 -17.753906 9.892580 6.367188 51.063168 8.107644 2.471410 -80.156250 -9.316405 -6.738282 2.000000 -2.000000 0.000000 -89.042969 12.197265 -21.005857 -57.954060 -1.267017 -2.152398 -11.819049 61.135952 -7.384748 -2.000000 2.000000 0.000000 79.931641 -8.837891 -1.231969 51.252037 1.857732 -2.049804 16.531645 -53.096592 -21.213474 -20.341917 19.658369 25.072302 49.598206 -3.674088 -3.979980 10.446565 10.209214 4.218302 -3.424641 -0.876519 -17.088114 17.725019 5.235005 1.387175 -4.259789 -6.532117 -3.905084 
-15.683880 52.391830 187.045258 -1.425781 -1.240234 -12.470704 41.257206 -16.173201 -2.120044 -17.285156 8.837891 6.220703 51.063168 8.107644 2.471410 -80.019531 -10.449219 -6.689453 2.000000 -2.000000 0.000000 -90.839844 15.205078 -23.298220 -57.791069 -1.576621 -2.261456 -10.636819 61.793549 -5.707028 -2.000000 2.000000 0.000000 78.916016 -6.044922 -2.167969 51.250488 1.688017 -1.991225 16.696577 -52.191116 -20.449322 -19.450268 18.028709 27.654684 37.629307 -4.119901 -3.241612 6.443485 7.604374 6.737359 -0.535202 -0.094929 -16.342060 14.203884 5.368889 1.257849 -4.762538 -5.820079 -3.985209 
